HIERARCHY
ROOT hip
{
  OFFSET 0 0 0
  CHANNELS 6 Xposition Yposition Zposition Zrotation Yrotation Xrotation
  JOINT abdomen
  {
    OFFSET 0 20.6881 -0.73152
    CHANNELS 3 Zrotation Xrotation Yrotation
    JOINT chest
    {
      OFFSET 0 11.7043 -0.48768
      CHANNELS 3 Zrotation Xrotation Yrotation
      JOINT neck
      {
        OFFSET 0 22.1894 -2.19456
        CHANNELS 3 Zrotation Xrotation Yrotation
        JOINT head
        {
          OFFSET -0.24384 7.07133 1.2192
          CHANNELS 3 Zrotation Xrotation Yrotation
          JOINT leftEye
          {
            OFFSET 4.14528 8.04674 8.04672
            CHANNELS 3 Zrotation Xrotation Yrotation
            End Site
            {
              OFFSET 1 0 0
            }
          }
          JOINT rightEye
          {
            OFFSET -3.6576 8.04674 8.04672
            CHANNELS 3 Zrotation Xrotation Yrotation
            End Site
            {
              OFFSET 1 0 0
            }
          }
        }
      }
      JOINT rCollar
      {
        OFFSET -2.68224 19.2634 -4.8768
        CHANNELS 3 Zrotation Xrotation Yrotation
        JOINT rShldr
        {
          OFFSET -8.77824 -1.95073 1.46304
          CHANNELS 3 Zrotation Xrotation Yrotation
          JOINT rForeArm
          {
            OFFSET -28.1742 -1.7115 0.48768
            CHANNELS 3 Zrotation Xrotation Yrotation
            JOINT rHand
            {
              OFFSET -22.5879 0.773209 7.07136
              CHANNELS 3 Zrotation Xrotation Yrotation
              JOINT rThumb1
              {
                OFFSET -1.2192 -0.487915 3.41376
                CHANNELS 3 Zrotation Xrotation Yrotation
                JOINT rThumb2
                {
                  OFFSET -3.37035 -0.52449 3.41376
                  CHANNELS 3 Zrotation Xrotation Yrotation
                  End Site
                  {
                    OFFSET -1.78271 -1.18214 1.43049
                  }
                }
              }
              JOINT rIndex1
              {
                OFFSET -7.75947 0.938293 5.60832
                CHANNELS 3 Zrotation Xrotation Yrotation
                JOINT rIndex2
                {
                  OFFSET -2.54057 -0.884171 1.56538
                  CHANNELS 3 Zrotation Xrotation Yrotation
                  End Site
                  {
                    OFFSET -1.62519 -0.234802 1.16502
                  }
                }
              }
              JOINT rMid1
              {
                OFFSET -8.24714 1.18213 3.41376
                CHANNELS 3 Zrotation Xrotation Yrotation
                JOINT rMid2
                {
                  OFFSET -3.10165 -0.590103 1.0647
                  CHANNELS 3 Zrotation Xrotation Yrotation
                  End Site
                  {
                    OFFSET -2.48547 -0.328903 0.83742
                  }
                }
              }
              JOINT rRing1
              {
                OFFSET -8.82822 0.546677 1.51678
                CHANNELS 3 Zrotation Xrotation Yrotation
                JOINT rRing2
                {
                  OFFSET -2.60934 -0.819778 -0.0198488
                  CHANNELS 3 Zrotation Xrotation Yrotation
                  End Site
                  {
                    OFFSET -2.33842 -0.294052 0.168128
                  }
                }
              }
              JOINT rPinky1
              {
                OFFSET -8.27202 -0.0477905 -0.4584
                CHANNELS 3 Zrotation Xrotation Yrotation
                JOINT rPinky2
                {
                  OFFSET -1.82734 -0.647385 -0.700984
                  CHANNELS 3 Zrotation Xrotation Yrotation
                  End Site
                  {
                    OFFSET -1.69225 -0.51767 -0.607171
                  }
                }
              }
            }
          }
        }
      }
      JOINT lCollar
      {
        OFFSET 2.68224 19.2634 -4.8768
        CHANNELS 3 Zrotation Xrotation Yrotation
        JOINT lShldr
        {
          OFFSET 8.77824 -1.95073 1.46304
          CHANNELS 3 Zrotation Xrotation Yrotation
          JOINT lForeArm
          {
            OFFSET 28.1742 -1.7115 0.48768
            CHANNELS 3 Zrotation Xrotation Yrotation
            JOINT lHand
            {
              OFFSET 22.5879 0.773209 7.07136
              CHANNELS 3 Zrotation Xrotation Yrotation
              JOINT lThumb1
              {
                OFFSET 1.2192 -0.487915 3.41376
                CHANNELS 3 Zrotation Xrotation Yrotation
                JOINT lThumb2
                {
                  OFFSET 3.37035 -0.52449 3.41376
                  CHANNELS 3 Zrotation Xrotation Yrotation
                  End Site
                  {
                    OFFSET 1.78271 -1.18214 1.43049
                  }
                }
              }
              JOINT lIndex1
              {
                OFFSET 7.75947 0.938293 5.60832
                CHANNELS 3 Zrotation Xrotation Yrotation
                JOINT lIndex2
                {
                  OFFSET 2.54057 -0.884171 1.56538
                  CHANNELS 3 Zrotation Xrotation Yrotation
                  End Site
                  {
                    OFFSET 1.62519 -0.234802 1.16502
                  }
                }
              }
              JOINT lMid1
              {
                OFFSET 8.24714 1.18213 3.41376
                CHANNELS 3 Zrotation Xrotation Yrotation
                JOINT lMid2
                {
                  OFFSET 3.10165 -0.590103 1.0647
                  CHANNELS 3 Zrotation Xrotation Yrotation
                  End Site
                  {
                    OFFSET 2.48547 -0.328903 0.83742
                  }
                }
              }
              JOINT lRing1
              {
                OFFSET 8.82822 0.546677 1.51678
                CHANNELS 3 Zrotation Xrotation Yrotation
                JOINT lRing2
                {
                  OFFSET 2.60934 -0.819778 -0.0198488
                  CHANNELS 3 Zrotation Xrotation Yrotation
                  End Site
                  {
                    OFFSET 2.33842 -0.294052 0.168128
                  }
                }
              }
              JOINT lPinky1
              {
                OFFSET 8.27202 -0.0477905 -0.4584
                CHANNELS 3 Zrotation Xrotation Yrotation
                JOINT lPinky2
                {
                  OFFSET 1.82734 -0.647385 -0.700984
                  CHANNELS 3 Zrotation Xrotation Yrotation
                  End Site
                  {
                    OFFSET 1.69225 -0.51767 -0.607171
                  }
                }
              }
            }
          }
        }
      }
    }
  }
  JOINT rButtock
  {
    OFFSET -8.77824 4.35084 1.2192
    CHANNELS 3 Zrotation Xrotation Yrotation
    JOINT rThigh
    {
      OFFSET 0 -1.70687 -2.19456
      CHANNELS 3 Zrotation Xrotation Yrotation
      JOINT rShin
      {
        OFFSET 0 -36.8199 0.73152
        CHANNELS 3 Zrotation Xrotation Yrotation
        JOINT rFoot
        {
          OFFSET 0.73152 -45.1104 -5.12064
          CHANNELS 3 Zrotation Xrotation Yrotation
          End Site
          {
            OFFSET -1.1221 -3.69964 12.103
          }
        }
      }
    }
  }
  JOINT lButtock
  {
    OFFSET 8.77824 4.35084 1.2192
    CHANNELS 3 Zrotation Xrotation Yrotation
    JOINT lThigh
    {
      OFFSET 0 -1.70687 -2.19456
      CHANNELS 3 Zrotation Xrotation Yrotation
      JOINT lShin
      {
        OFFSET 0 -36.8199 0.73152
        CHANNELS 3 Zrotation Xrotation Yrotation
        JOINT lFoot
        {
          OFFSET -0.73152 -45.1104 -5.12064
          CHANNELS 3 Zrotation Xrotation Yrotation
          End Site
          {
            OFFSET 1.1221 -3.69964 12.103
          }
        }
      }
    }
  }
}
MOTION
Frames:	5
Frame Time:	0.03333
0.0 0.0 0.0 0.0 0.0 0.0 0.0 0.0 0.0 0.0 0.0 0.0 0.0 0.0 0.0 0.0 0.0 0.0 0.0 0.0 0.0 0.0 0.0 0.0 0.0 0.0 0.0 0.0 0.0 0.0 0.0 0.0 0.0 0.0 0.0 0.0 0.0 0.0 0.0 0.0 0.0 0.0 0.0 0.0 0.0 0.0 0.0 0.0 0.0 0.0 0.0 0.0 0.0 0.0 0.0 0.0 0.0 0.0 0.0 0.0 0.0 0.0 0.0 0.0 0.0 0.0 0.0 0.0 0.0 0.0 0.0 0.0 0.0 0.0 0.0 0.0 0.0 0.0 0.0 0.0 0.0 0.0 0.0 0.0 0.0 0.0 0.0 0.0 0.0 0.0 0.0 0.0 0.0 0.0 0.0 0.0 0.0 0.0 0.0 0.0 0.0 0.0 0.0 0.0 0.0 0.0 0.0 0.0 0.0 0.0 0.0 0.0 0.0 0.0 0.0 0.0 0.0 0.0 0.0 0.0 0.0 0.0 0.0 0.0 0.0 0.0 0.0 0.0 0.0 0.0 0.0 0.0
0.22659999999999997 54.759 -0.1045 99.035224 -82.610716 -95.258143 -13.321138 9.449142 -0.0 5.018069 -8.54009 4.361426 -14.062911 31.497278 -107.548459 38.151147 19.558024 66.052542 -0.002258 0.0 -0.002211 -0.002258 0.0 -0.002211 -157.324108 -17.489198 164.607831 170.761573 -1.306308 -156.599933 -9.008105 -16.67178 24.077505 -2.447538 25.310226 2.694082 -94.790785 37.828444 54.284431 175.376697 -42.228736 75.509725 24.07736 -42.30603 -5.557715 -81.682734 49.458103 67.399986 -160.738724 -6.87702 143.277185 -42.496495 58.273265 36.598933 -145.098402 -1.52216 -178.650117 -54.614142 87.580124 67.953383 -24.989592 -37.659148 -24.06046 -22.346761 -40.113342 -23.916579 0.048677 0.292474 -0.064533 117.354257 21.848055 147.950706 19.804617 54.038606 117.120977 167.575195 0.082286 -142.599378 -15.489333 -15.373288 0.296882 4.463084 -0.421426 6.916187 145.337618 -6.264534 -118.678165 168.945639 -28.302287 -118.622129 -9.416578 -29.555408 3.209778 170.389183 -26.237503 -144.272756 145.099307 -1.605998 178.62566 -11.690539 20.322941 6.650819 111.802403 -40.682624 109.845965 -70.030039 84.522952 31.005835 179.98265 75.748875 0.011871 148.124371 3.949301 90.41926 82.043201 -0.930822 77.410843 83.241332 38.048603 -167.794779 -0.000787 0.000767 0.001011 15.532394 7.606003 115.465187 39.593065 -18.039218 -5.439655 -92.811153 49.828325 -3.3115
0.6829 54.6825 -0.0183 98.40485 -82.832032 -94.59375 -10.703321 7.202091 -89.745334 6.232533 2.546874 93.052539 -1.865795 36.129872 178.118014 3.172453 46.466799 143.295931 -0.000122 -0.0 0.00162 -0.000706 0.0 -0.001446 2.460298 -18.216366 -3.668572 -118.865152 7.351394 157.667405 -175.450081 -25.010172 -151.934374 -7.533349 39.876807 3.606618 -2.81536 2.753515 0.499107 41.728414 -62.160371 -15.025256 -155.194771 -24.300177 122.141322 82.816202 -69.173069 30.359645 5.894045 -18.35185 -2.543164 -167.385062 -17.301203 144.215679 0.003725 1.772368 0.55652 9.092679 12.714315 1.662596 7.926882 24.811956 7.001747 -147.801508 11.637235 -143.574988 158.467602 -30.055386 -166.92059 64.05442 4.067573 -13.602458 174.202665 5.881989 79.537511 10.019431 -22.18245 6.031983 7.758067 7.439324 -1.681849 129.174278 -27.945395 -111.58768 19.169878 24.114711 -13.381022 168.113623 -18.94505 -110.278062 172.969961 -43.924278 -144.947163 -2.750215 1.00158 -0.453798 -0.005105 1.770557 -0.555483 -6.768843 29.707085 -4.675845 151.765679 35.622448 147.262273 137.011255 -14.691443 133.085019 0.000932 -2e-05 -0.001198 -59.033196 -54.496708 -63.964112 -10.634294 71.223294 80.879432 -77.544098 46.033351 8.104798 -179.985172 75.749472 -0.0122 -112.585154 72.803263 24.798725 44.353322 11.382479 143.350515 -14.880456 30.30925 160.74426
1.5106 54.542100000000005 0.24420000000000003 95.529111 -83.202752 -91.659259 -10.579746 8.694549 -61.779998 7.837246 -1.092257 64.879897 -14.532097 31.19377 -104.39558 39.501914 18.618467 63.057758 0.001826 -0.0 -0.000624 -0.003812 -0.0 0.001871 0.058439 -0.352871 -0.078049 -121.794606 5.784374 145.756936 10.018114 9.189977 -63.344858 158.185601 -31.478611 141.440471 -171.653135 -9.336484 89.948991 -141.813901 8.55853 72.066301 -46.132636 39.629953 36.249492 -10.99406 23.628568 4.706117 -158.521137 -0.192422 142.14462 -6.133976 23.462089 5.519908 -77.741939 72.902446 95.870219 3.080168 46.751594 2.818322 -144.10993 8.780999 -140.875972 18.121357 47.054961 6.212979 9.651676 34.836203 -11.199105 94.288082 -18.080351 -178.622927 4.382122 -3.12604 135.96628 166.012293 4.911143 -141.282074 85.829296 38.63067 -47.95553 83.156357 -3.293861 -62.377812 138.763619 4.487495 -115.031642 87.078186 56.272315 -66.583059 159.364917 -2.68549 -142.597635 10.905841 32.163209 -8.963709 0.013687 -1.323059 0.416504 -9.403515 12.100817 -1.568418 -7.927952 24.811774 -7.001658 160.120946 55.499859 149.879669 -0.006378 0.001889 -0.006379 -60.900864 -54.638231 24.488596 81.754469 7.842943 83.384559 -152.961489 14.444935 169.524013 0.0 0.000191 -0.00111 16.808491 5.173947 82.48183 42.692484 4.126492 -14.506835 18.692905 -29.902195 -38.568282
2.6936 54.367900000000006 0.736 85.498248 -84.039163 -81.652518 -9.369603 6.95984 -126.292374 2.52372 4.980959 128.348594 5.205346 22.136014 72.618461 -35.303573 -0.070871 -110.061718 0.00496 0.0 0.000723 -0.001227 0.0 -0.001542 -6.472873 26.865173 7.714402 -135.574008 5.569935 131.309919 115.666705 48.046777 -106.811891 -137.920885 75.122981 120.276761 -158.000375 4.195297 88.450816 52.53763 -60.711746 41.383959 -90.225679 41.072582 75.796682 -162.236062 -6.585733 114.635314 -145.289099 29.524711 132.692736 3.554803 -0.596804 0.235806 -145.121889 1.975274 -179.74916 -151.258609 -31.753829 -173.87839 12.989505 44.344059 10.762211 -25.145712 -41.07299 -25.183106 0.164677 0.979196 -0.21926 92.950775 -17.83349 147.860045 0.310939 5.835206 135.002222 164.678463 9.009239 -140.043883 78.030881 38.689481 -42.412418 -6.502145 -17.039587 -23.090881 10.570733 15.013652 -6.864916 -159.409157 -50.728851 -94.7143 4.681699 12.536483 -2.930961 11.351049 33.424748 -9.082917 0.008221 -0.872261 0.272982 -10.387615 0.18939 0.045738 162.369764 72.064158 150.896284 -49.558287 82.016474 13.452579 179.992404 75.748557 0.00625 151.409246 3.27201 180.0 6.485077 -69.706538 -160.017122 -12.288582 1.748353 0.859297 179.992404 75.748557 0.00625 -122.393263 67.969347 -0.0 48.109435 32.661781 97.689585 -176.394407 8.707496 123.040732
